<svg width="832" height="246" viewBox="0 0 832 246" fill="none" xmlns="http://www.w3.org/2000/svg">
<g clip-path="url(#clip0_6_2)">
<path d="M526.73 96.61C526.41 97.37 526.11 98.14 525.76 98.9C524.26 102.42 522.62 105.97 520.77 109.58C518.07 114.89 515.05 120.26 511.65 125.69C511.62 125.75 511.62 125.78 511.59 125.81C507.72 132 503.52 138.07 499.03 144.03C498.12 145.23 497.18 146.44 496.24 147.64C452.2 203.83 382.52 246.34 330.65 246.34H329.92C306.13 246.16 288.7 237.27 279.57 220.64C270.91 204.91 270.59 183.99 278.19 160.43H286.17C278.51 182.9 278.28 202.86 286.08 217.06C293.86 231.17 309.02 238.71 329.97 238.89H330.64C379.17 238.89 444.1 199.84 486.82 147.44C487.35 146.82 487.85 146.21 488.35 145.59C489.91 143.65 491.43 141.72 492.9 139.78C495.07 136.9 497.18 134 499.21 131.04C501.32 128.02 503.32 124.97 505.25 121.89C507.83 117.75 510.18 113.65 512.32 109.6C514.26 105.99 515.99 102.44 517.57 98.92C524.88 82.64 528.63 67.29 528.63 53.97C528.63 44.46 526.72 36.04 522.88 29C515.1 14.89 499.94 7.32001 479.02 7.17001H478.32C434.1 7.17001 376.28 39.62 334 85.01H323.94C368.21 35.34 431.32 -0.66 479.09 -0.31C502.88 -0.1 520.28 8.79001 529.44 25.39C539.4 43.53 538.26 68.59 526.73 96.61Z" fill="#27AAE1"/>
<path d="M-0.209961 115.43V142.12C-0.209961 143.62 0.320027 144.88 1.34003 145.93C2.40003 146.96 3.63003 147.49 5.12003 147.49C6.62003 147.49 7.88002 146.96 8.90002 145.93C9.96002 144.87 10.45 143.61 10.45 142.12V115.43H-0.209961Z" fill="white"/>
<path d="M10.4701 110.71V104.23C10.4701 102.73 9.97007 101.47 8.92007 100.45C7.89007 99.42 6.63008 98.89 5.14008 98.89C3.64008 98.89 2.41005 99.42 1.36005 100.45C0.330046 101.48 -0.189941 102.74 -0.189941 104.23V110.71H10.4701Z" fill="#27AAE1"/>
<path d="M106.88 114.83C106 112.01 104.71 109.43 103.04 107.14C101.37 104.82 99.3401 102.92 96.9701 101.39C94.5901 99.86 91.8901 99.04 88.8401 98.9H42.1301C38.9301 98.9 36.0901 99.63 33.5601 101.13C31.0401 102.6 28.8701 104.53 27.1101 106.85C25.3201 109.2 23.9401 111.81 23.0301 114.65C22.0901 117.53 21.6201 120.37 21.6201 123.19V142.11C21.6201 143.61 22.1501 144.87 23.2001 145.92C24.2301 146.95 25.4901 147.48 26.9801 147.48C28.4501 147.48 29.7101 146.95 30.7601 145.92C31.7901 144.86 32.3101 143.6 32.3101 142.11V123.19C32.3101 121.84 32.4901 120.37 32.8101 118.79C33.1301 117.18 33.7801 115.71 34.7201 114.39C35.6301 113.04 36.8901 111.93 38.5001 110.99C40.0801 110.05 42.2001 109.58 44.7801 109.58H85.0301C87.5501 109.58 89.6401 110.05 91.2501 110.99C92.8901 111.93 94.1801 113.04 95.0901 114.39C96.0301 115.71 96.6401 117.18 97.0001 118.79C97.3201 120.37 97.5001 121.84 97.5001 123.19V142.11C97.5001 143.61 98.0301 144.87 99.0501 145.92C100.11 146.95 101.37 147.48 102.83 147.48C104.33 147.48 105.59 146.95 106.61 145.92C107.67 144.86 108.19 143.6 108.19 142.11V123.19C108.23 120.43 107.76 117.65 106.88 114.83Z" fill="white"/>
<path d="M119.93 109.58C120.08 108.99 120.28 108.44 120.52 107.91C121.31 106.15 122.37 104.57 123.69 103.25C125.04 101.9 126.59 100.84 128.38 100.08C130.17 99.29 132.11 98.91 134.19 98.91H201.82C203.32 98.91 204.58 99.44 205.6 100.47C206.66 101.5 207.16 102.76 207.16 104.25C207.16 105.75 206.66 107.01 205.6 108.03C204.57 109.09 203.31 109.58 201.82 109.58H135.48C135.45 109.58 135.42 109.55 135.39 109.55C135.36 109.58 135.33 109.58 135.27 109.58H119.93Z" fill="#27AAE1"/>
<path d="M210.5 132.76C210.5 134.84 210.12 136.78 209.33 138.57C208.57 140.36 207.51 141.91 206.16 143.24C204.84 144.59 203.26 145.65 201.44 146.38C199.62 147.11 197.66 147.49 195.57 147.49H128.06C126.56 147.49 125.3 146.96 124.28 145.93C123.22 144.87 122.7 143.61 122.7 142.12C122.7 140.65 123.23 139.39 124.28 138.34C125.31 137.31 126.57 136.79 128.06 136.79H196.04C197.15 136.79 198.09 136.41 198.92 135.62C199.74 134.86 200.15 133.89 200.15 132.77C200.15 131.6 199.74 130.6 198.92 129.78C198.1 128.96 197.16 128.55 196.04 128.55H134.19C132.11 128.55 130.17 128.17 128.38 127.38C126.59 126.62 125.04 125.56 123.69 124.21C122.37 122.86 121.31 121.31 120.52 119.52C120.29 118.99 120.08 118.43 119.93 117.85H195.57C197.65 117.85 199.62 118.26 201.44 119.02C203.26 119.81 204.84 120.87 206.16 122.22C207.51 123.54 208.57 125.12 209.33 126.94C210.12 128.74 210.5 130.7 210.5 132.76Z" fill="white"/>
<path d="M230.81 100.45C229.75 99.42 228.49 98.89 227 98.89C225.53 98.89 224.27 99.42 223.22 100.45C222.19 101.48 221.67 102.74 221.67 104.23V142.11C221.67 143.61 222.2 144.87 223.22 145.92C224.28 146.95 225.54 147.48 227 147.48C228.5 147.48 229.76 146.95 230.81 145.92C231.84 144.86 232.36 143.6 232.36 142.11V104.23C232.36 102.74 231.83 101.48 230.81 100.45Z" fill="white"/>
<path d="M330.47 121.78C329.24 120.58 327.83 119.61 326.19 118.9C324.55 118.2 322.82 117.81 320.94 117.81H278.28C276.78 117.81 275.52 118.34 274.5 119.39C273.44 120.42 272.92 121.68 272.92 123.17C272.92 124.64 273.45 125.9 274.5 126.95C275.53 127.98 276.79 128.51 278.28 128.51H320.5C321.56 128.51 322.38 128.92 323.02 129.74C323.64 130.56 323.96 131.53 323.96 132.64C323.96 133.75 323.61 134.72 322.9 135.52C322.2 136.34 321.4 136.75 320.49 136.75H266.45C263.84 136.75 261.76 136.28 260.14 135.37C258.56 134.43 257.29 133.29 256.36 131.97C255.45 130.62 254.81 129.15 254.48 127.57C254.13 125.96 253.98 124.49 253.98 123.17C253.98 121.82 254.13 120.35 254.48 118.77C254.8 117.16 255.45 115.69 256.36 114.37C257.3 113.02 258.56 111.91 260.14 110.97C261.75 110.03 263.84 109.56 266.45 109.56H328.97C330.44 109.56 331.73 109.06 332.75 108.01C333.78 106.98 334.3 105.72 334.3 104.23C334.3 102.73 333.77 101.47 332.75 100.45C331.72 99.42 330.43 98.89 328.97 98.89H264.01C260.81 98.89 257.94 99.62 255.41 101.12C252.89 102.59 250.74 104.52 248.96 106.84C247.17 109.19 245.82 111.8 244.88 114.64C243.94 117.52 243.5 120.36 243.5 123.18C243.5 125.91 243.94 128.75 244.82 131.63C245.73 134.53 246.99 137.15 248.66 139.49C250.33 141.84 252.36 143.74 254.73 145.24C257.11 146.74 259.84 147.47 262.86 147.47H320.92C322.8 147.47 324.53 147.12 326.17 146.41C327.81 145.71 329.22 144.74 330.45 143.51C331.68 142.28 332.62 140.84 333.3 139.17C333.97 137.5 334.3 135.74 334.3 133.86V131.42C334.3 129.57 333.98 127.78 333.3 126.11C332.65 124.45 331.71 123.02 330.47 121.78Z" fill="white"/>
<path d="M431.05 100.45C430.02 99.42 428.73 98.89 427.27 98.89C425.77 98.89 424.51 99.42 423.49 100.45C422.43 101.48 421.94 102.74 421.94 104.23V121.39C419.86 120.22 417.63 119.31 415.31 118.72C412.96 118.13 410.64 117.81 408.33 117.81H369.66C368.34 117.81 366.87 117.66 365.32 117.31C363.77 116.99 362.3 116.4 360.92 115.55C359.54 114.7 358.4 113.5 357.46 111.97C356.55 110.44 356.08 108.51 356.08 106.13V104.22C356.08 102.72 355.55 101.46 354.52 100.44C353.46 99.41 352.2 98.88 350.71 98.88C349.24 98.88 347.98 99.41 346.93 100.44C345.9 101.47 345.37 102.73 345.37 104.22V142.1C345.37 143.6 345.9 144.86 346.93 145.91C347.99 146.94 349.25 147.47 350.71 147.47C352.21 147.47 353.47 146.94 354.52 145.91C355.55 144.85 356.08 143.59 356.08 142.1V124.97C358.16 126.14 360.36 127.02 362.71 127.64C365.03 128.23 367.37 128.52 369.66 128.52H408.33C409.59 128.52 411 128.67 412.55 128.96C414.13 129.25 415.57 129.81 416.92 130.63C418.24 131.45 419.38 132.6 420.35 134.03C421.32 135.47 421.85 137.32 421.93 139.55V142.1C421.93 143.6 422.43 144.86 423.48 145.91C424.51 146.94 425.77 147.47 427.26 147.47C428.73 147.47 430.02 146.94 431.04 145.91C432.07 144.85 432.59 143.59 432.59 142.1V104.22C432.61 102.74 432.08 101.48 431.05 100.45Z" fill="white"/>
<path d="M449.21 98.9C447.71 98.9 446.45 99.43 445.43 100.46C444.37 101.49 443.88 102.75 443.88 104.24C443.88 105.74 444.38 107 445.43 108.02C446.46 109.08 447.72 109.57 449.21 109.57H485.77C484.57 111.65 483.69 113.88 483.1 116.2C482.48 118.55 482.19 120.87 482.19 123.18V142.1C482.19 142.63 482.25 143.1 482.4 143.57C482.87 143.01 483.34 142.46 483.78 141.9C486.92 138.03 489.97 133.95 492.9 129.81V123.18C492.9 121.92 493.05 120.51 493.34 118.93C493.63 117.38 494.19 115.94 495.01 114.59C495.83 113.27 496.98 112.13 498.41 111.19C499.85 110.28 501.7 109.72 503.93 109.58H505.66C507.66 106 509.47 102.42 511.09 98.9H449.21Z" fill="white"/>
<path d="M531.25 104.24C531.25 105.65 530.75 106.85 529.78 107.88C529.11 108.58 528.34 109.05 527.46 109.35C527.11 109.47 526.73 109.56 526.32 109.58H520.77C522.62 105.97 524.26 102.42 525.76 98.9H525.88C527.38 98.9 528.64 99.43 529.66 100.46C530.16 100.96 530.54 101.49 530.77 102.07C531.1 102.71 531.25 103.45 531.25 104.24Z" fill="white"/>
<path d="M628.07 119.41C627.04 118.35 625.78 117.83 624.29 117.83H566.58C565.08 117.83 563.82 118.36 562.8 119.41C561.74 120.44 561.22 121.7 561.22 123.19C561.22 124.66 561.75 125.92 562.8 126.97C563.83 128 565.09 128.53 566.58 128.53H624.29C625.79 128.53 627.05 128 628.07 126.97C629.13 125.91 629.63 124.65 629.63 123.19C629.62 121.7 629.12 120.43 628.07 119.41Z" fill="#27AAE1"/>
<path d="M630.65 100.45C629.59 99.42 628.33 98.89 626.84 98.89H563C559.8 98.89 556.96 99.62 554.43 101.12C551.88 102.59 549.74 104.52 547.95 106.84C546.16 109.19 544.81 111.8 543.9 114.64C542.96 117.52 542.49 120.36 542.49 123.18V142.1C542.49 143.6 543.02 144.86 544.05 145.91C545.11 146.94 546.37 147.47 547.86 147.47C549.33 147.47 550.59 146.94 551.64 145.91C552.67 144.85 553.2 143.59 553.2 142.1V122.4C553.26 121.08 553.46 119.67 553.82 118.18C554.14 116.68 554.76 115.3 555.64 113.98C556.55 112.69 557.78 111.63 559.34 110.81C560.9 109.99 562.89 109.58 565.35 109.58H626.85C628.35 109.58 629.61 109.08 630.66 108.03C631.69 107 632.22 105.74 632.22 104.25C632.2 102.74 631.68 101.48 630.65 100.45Z" fill="white"/>
<path d="M732.37 100.45C731.34 99.42 730.08 98.89 728.58 98.89C727.08 98.89 725.85 99.42 724.8 100.45C723.77 101.48 723.24 102.74 723.24 104.23V123.18C723.24 124.5 723.06 125.97 722.74 127.58C722.39 129.16 721.77 130.63 720.83 131.98C719.92 133.3 718.63 134.44 716.99 135.38C715.35 136.29 713.29 136.76 710.74 136.76H666.41C663.8 136.76 661.72 136.29 660.1 135.38C658.52 134.44 657.25 133.3 656.32 131.98C655.38 130.63 654.77 129.16 654.44 127.58C654.09 125.97 653.91 124.5 653.91 123.18V104.23C653.91 102.73 653.41 101.47 652.36 100.45C651.33 99.42 650.07 98.89 648.58 98.89C647.08 98.89 645.82 99.42 644.8 100.45C643.74 101.48 643.25 102.74 643.25 104.23V123.18C643.25 125.91 643.69 128.7 644.57 131.54C645.48 134.36 646.74 136.91 648.41 139.23C650.08 141.52 652.11 143.43 654.48 144.95C656.86 146.48 659.59 147.33 662.64 147.47H713.46C716.63 147.47 719.5 146.74 722.03 145.24C724.55 143.74 726.72 141.84 728.48 139.49C730.27 137.14 731.62 134.56 732.56 131.69C733.5 128.84 733.94 126 733.94 123.18V104.23C733.93 102.74 733.43 101.48 732.37 100.45Z" fill="white"/>
<path d="M830.66 138.33C829.63 137.3 828.37 136.78 826.88 136.78H760.01C758.9 136.78 757.93 136.37 757.08 135.55C756.2 134.76 755.79 133.79 755.79 132.67V104.24C755.79 102.74 755.23 101.48 754.18 100.46C753.09 99.43 751.86 98.9 750.45 98.9C748.95 98.9 747.69 99.43 746.64 100.46C745.61 101.49 745.08 102.75 745.08 104.24V132.67C745.08 134.75 745.49 136.66 746.31 138.45C747.13 140.24 748.22 141.79 749.6 143.14C750.98 144.46 752.59 145.52 754.44 146.31C756.32 147.07 758.28 147.48 760.37 147.48H826.88C828.38 147.48 829.64 146.95 830.66 145.92C831.72 144.86 832.21 143.6 832.21 142.11C832.21 140.65 831.72 139.39 830.66 138.33Z" fill="white"/>
</g>
<defs>
<clipPath id="clip0_6_2">
<rect width="832" height="246" fill="white"/>
</clipPath>
</defs>
</svg>
