<svg width="84" height="84" viewBox="0 0 84 84" fill="none" xmlns="http://www.w3.org/2000/svg">
<path d="M44.9051 7.63003C43.9931 7.21405 43.0025 6.99878 42.0001 6.99878C40.9978 6.99878 40.0071 7.21405 39.0951 7.63003L9.10012 21.28C8.47904 21.5539 7.951 22.0024 7.58029 22.571C7.20958 23.1396 7.01221 23.8038 7.01221 24.4825C7.01221 25.1613 7.20958 25.8254 7.58029 26.394C7.951 26.9626 8.47904 27.4112 9.10012 27.685L39.1301 41.37C40.0421 41.786 41.0328 42.0013 42.0351 42.0013C43.0375 42.0013 44.0281 41.786 44.9401 41.37L74.9701 27.72C75.5912 27.4462 76.1192 26.9976 76.49 26.429C76.8607 25.8604 77.058 25.1963 77.058 24.5175C77.058 23.8388 76.8607 23.1746 76.49 22.606C76.1192 22.0374 75.5912 21.5889 74.9701 21.315L44.9051 7.63003Z" stroke="#06B6D4" stroke-width="9" stroke-linecap="round" stroke-linejoin="round"/>
<path d="M77 61.775L44.905 76.335C43.993 76.751 43.0024 76.9663 42 76.9663C40.9976 76.9663 40.007 76.751 39.095 76.335L7 61.775" stroke="#06B6D4" stroke-width="9" stroke-linecap="round" stroke-linejoin="round"/>
<path d="M77 44.275L44.905 58.835C43.993 59.251 43.0024 59.4663 42 59.4663C40.9976 59.4663 40.007 59.251 39.095 58.835L7 44.275" stroke="#06B6D4" stroke-width="9" stroke-linecap="round" stroke-linejoin="round"/>
</svg>
